/* XPM */
static char *aa4b16eb1403476197e2b16aa7fe8036cQUQ6eet3j8yTIw6[] = {
/* columns rows colors chars-per-pixel */
"64 64 242 2 ",
"   c None",
".  c gray19",
"X  c #423A2D",
"o  c #423B2D",
"O  c #433B2D",
"+  c #443C2E",
"@  c #453D2E",
"#  c #463D2F",
"$  c #433C30",
"%  c #463F32",
"&  c #52432B",
"*  c #53442A",
"=  c #56472C",
"-  c #5D4B29",
";  c #454037",
":  c #474239",
">  c #46433E",
",  c #48453F",
"<  c #644E27",
"1  c #675026",
"2  c #685127",
"3  c #6B5329",
"4  c #6E562B",
"5  c #735624",
"6  c #745825",
"7  c #765A27",
"8  c #71582D",
"9  c #6A5531",
"0  c #735D37",
"q  c #7D602C",
"w  c #786137",
"e  c #484745",
"r  c #494746",
"t  c #484848",
"y  c #494949",
"u  c #595143",
"i  c #5C5345",
"p  c #5E5D5B",
"a  c gray37",
"s  c #6E6046",
"d  c #75664B",
"f  c #736B5B",
"g  c #776E5E",
"h  c #6D6D6D",
"j  c #777777",
"k  c #787570",
"l  c #7A7671",
"z  c #7B7B7B",
"x  c #B53F26",
"c  c #B03528",
"v  c #B23B2F",
"b  c #A3721B",
"n  c #B17A19",
"m  c #B47D1B",
"M  c #B67E1B",
"N  c #B77F1B",
"B  c #BA4B26",
"V  c #BB4D29",
"C  c #B54135",
"Z  c #B7483C",
"A  c #B84B3F",
"S  c #BD553D",
"D  c #846122",
"F  c #8C6520",
"G  c #8E6721",
"H  c #8E6723",
"J  c #956B20",
"K  c #966C21",
"L  c #936B24",
"P  c #946D28",
"I  c #976F28",
"U  c #97702B",
"Y  c #9C732B",
"T  c #81693D",
"R  c #906E31",
"E  c #A77721",
"W  c #AB7A24",
"Q  c #A5792B",
"!  c #A77E36",
"~  c #A07C3C",
"^  c #C15A27",
"/  c #C46226",
"(  c #C97025",
")  c #CE7927",
"_  c #CE7F24",
"`  c #CE7528",
"'  c #C66731",
"]  c #C76A37",
"[  c #D17F32",
"{  c #B94E42",
"}  c #857D6F",
"|  c #877F71",
" . c #C06056",
".. c #C7736A",
"X. c #CA7C74",
"o. c #CB7F77",
"O. c #B7801F",
"+. c #BA8220",
"@. c #BA8321",
"#. c #B38129",
"$. c #B68732",
"%. c #C1861F",
"&. c #C78818",
"*. c #C9891B",
"=. c #CE8B1F",
"-. c #CA8C1E",
";. c #CE8E1D",
":. c #CE8521",
">. c #C28820",
",. c #C08824",
"<. c #C08926",
"1. c #CC8F22",
"2. c #C38C29",
"3. c #C78D29",
"4. c #D38D23",
"5. c #D78F27",
"6. c #CE9124",
"7. c #CC922A",
"8. c #CD932E",
"9. c #D59522",
"0. c #D79726",
"q. c #DC9B27",
"w. c #D19429",
"e. c #D1942A",
"r. c #D59729",
"t. c #D2972F",
"y. c #DA9029",
"u. c #DB942D",
"i. c #DA9A28",
"p. c #DD9D2B",
"a. c #D89A2D",
"s. c #D28138",
"d. c #CC9531",
"f. c #D09834",
"g. c #D39A34",
"h. c #DD9A33",
"j. c #D89D33",
"k. c #DFA032",
"l. c #DAA03A",
"z. c #DFA03A",
"x. c #D8A13F",
"c. c #DDA33E",
"v. c #DFA53E",
"b. c #E0A439",
"n. c #988054",
"m. c #9A8258",
"M. c #AF8740",
"N. c #BA9148",
"B. c #A1885C",
"V. c #A38A5C",
"C. c #A09278",
"Z. c #A7987C",
"A. c #BCA379",
"S. c #D08045",
"D. c #CC9A41",
"F. c #D89146",
"G. c #DD9C40",
"H. c #D28958",
"J. c #C69E56",
"K. c #DA9A59",
"L. c #DCA542",
"P. c #CDA35B",
"I. c #DAA952",
"U. c #DFAD55",
"Y. c #DEA459",
"T. c #E0A640",
"R. c #E2A640",
"E. c #E2A740",
"W. c #E3A944",
"Q. c #E1AF57",
"!. c #E2B057",
"~. c #E5B157",
"^. c #CD806B",
"/. c #C2A063",
"(. c #D8AD62",
"). c #D2AD6E",
"_. c #DDB46C",
"`. c #DFB66E",
"'. c #C0A77B",
"]. c #DDA779",
"[. c #E4B36D",
"{. c #E5B66D",
"}. c #E5B96C",
"|. c #E6BA6C",
" X c #E2BB75",
".X c #E5BD77",
"XX c #E9BF77",
"oX c #E2B279",
"OX c #E1BD7E",
"+X c #E9C27D",
"@X c #898680",
"#X c #8B8B8B",
"$X c #A69D8C",
"%X c #A8A39B",
"&X c #ABA59C",
"*X c #B1A99B",
"=X c #B3AB9C",
"-X c gray64",
";X c #ACACAC",
":X c #B4AFA6",
">X c #D08B84",
",X c #D69E98",
"<X c #D2B88B",
"1X c #DCAB98",
"2X c #CDB994",
"3X c #C3B398",
"4X c #DBAAA5",
"5X c #DCADA8",
"6X c #DFB6B2",
"7X c #D7C19B",
"8X c #DDC59A",
"9X c #DFC69B",
"0X c #EBC88A",
"qX c #E3C694",
"wX c #ECCD97",
"eX c #E9C69A",
"rX c #EACA9A",
"tX c #EACD99",
"yX c #EBCD99",
"uX c #E0CAA4",
"iX c #EED3A4",
"pX c #EED6AA",
"aX c #CBCBCB",
"sX c #D8D2C5",
"dX c #DED6C7",
"fX c #DCD4C8",
"gX c #DED6C8",
"hX c #DFD7CB",
"jX c gray87",
"kX c #E6C9C6",
"lX c #ECD6C6",
"zX c #EEDFC5",
"xX c #EDDBD9",
"cX c #EEDEDD",
"vX c #F1E0C7",
"bX c #F1E2C7",
"nX c #F2E3CA",
"mX c #F4ECDD",
"MX c #EFE1E0",
"NX c #F1E8E6",
"BX c #F4EEED",
"VX c #F6F4F4",
/* pixels */
"                                                        . . . . . . . .                                                         ",
"                                                        . . . . . . . .                                                         ",
"                                                        t t e > ; $ X X                                                         ",
"                                                      a h j k f s 9 < - &                                                       ",
"                                                  . t h #X-X%XC.n.R D 5 - X .                                                   ",
"                                                . . t j -XaXsX2X/.$.b D < X . .                                                 ",
"                                                t t p @X:XhXzXqX(.d.N J 6 * X X                                                 ",
"                                              a h j @X$X3XuXtX XI.t.%.E F 6 < - &                                               ",
"                                          . t h #X-X:X3X<XOX|.Q.L.a.1.+.E J D 5 - X .                                           ",
"                                        . . t j -XaXhXuXOX!.E.b.k.p.0.1.%.N b D < X . .                                         ",
"                                        . . e k &XhXnXiX+X~.W.W.W.W.v.j.e.-.N F 2 X . .                                         ",
"                                        . . , g Z.7XiXwX0X+XXXXXXXXX|.U.x.e.+.L 3 + . .                                         ",
"                                        . . : d V.).+X0XwXiXpXpXpXpXtX.XU.j.<.I 4 + . .                                         ",
"                                        . . % 0 ~ D.~.+XiXnXmXmXmXmXvXtX|.v.3.Y 8 + . .                                         ",
"                                        t t i T ! 8.W.XXpXmXVXBXNXMXlXeX{.E.7.Q q = X X                                         ",
"                                      a h j | V.N.g.W.XXpXmXBXxXkX6X1X].Y.z.e.#.I 6 < - &                                       ",
"                                  . t h #X-X=X'.P.l.W.XXpXmXNXkX4X>X^.H.F.h.r.<.W K D 5 - X .                                   ",
"                                . . t j -XaXhX9X`.E.W.XXpXmXMX6X>X .S ] [ u.i.6.>.N b D < X . .                                 ",
"                                . . t z ;XjXmXpXXXW.W.XXpXmXcX5Xo.A x ^ ` y.q.9.;.&.n F 1 X . .                                 ",
"                                . . t z ;XjXmXpXXXW.W.XXpXmXcX5XX.A x ^ ` y.q.9.;.&.n F 1 X . .                                 ",
"                                . . t z ;XjXmXpXXXW.W.XXpXmXcX5Xo.A x ^ ` y.q.9.;.&.n F 1 X . .                                 ",
"                                . . t z ;XjXmXpXXXW.W.XXpXmXcX5Xo.A x ^ ` y.q.9.;.&.n F 1 X . .                                 ",
"                                . . t z ;XjXmXpXXXW.W.XXpXmXcX5Xo.A x ^ ` y.q.9.;.&.n F 1 X . .                                 ",
"                                . . t z ;XjXmXpXXXW.W.XXpXmXcX5Xo.A x ^ ` y.q.9.;.&.n F 1 X . .                                 ",
"                                . . t z ;XjXmXpXXXW.W.XXpXmXcX5Xo.A x ^ ` y.q.9.;.&.n F 1 X . .                                 ",
"                                . . t z ;XjXmXpXXXW.W.XXpXmXcX5Xo.A x ^ ` y.q.9.;.&.n F 1 X . .                                 ",
"                                . . t z ;XjXmXpXXXW.W.XXpXmXcX5Xo.A x ^ ` y.q.9.;.&.n F 1 X . .                                 ",
"                                . . t z ;XjXmXpXXXW.W.XXpXmXcX5XX.A x ^ ` y.q.9.;.&.n F 1 X . .                                 ",
"                                . . t z ;XjXmXpXXXW.W.XXpXmXcX5Xo.A x ^ ` y.q.9.;.&.n F 1 X . .                                 ",
"                                . . t z ;XjXmXpXXXW.W.XXpXmXcX5Xo.A x ^ ` y.q.9.;.&.n F 1 X . .                                 ",
"                                . . t z ;XjXmXpXXXW.W.XXpXmXcX5Xo.A x ^ ` y.q.9.;.&.n F 1 X . .                                 ",
"                                . . t z ;XjXmXpXXXW.W.XXpXmXcX5Xo.A x ^ ` y.q.9.;.&.n F 1 X . .                                 ",
"                                . . t z ;XjXmXpXXXW.W.XXpXmXcX5Xo.A x ^ ` y.q.9.;.&.n F 1 X . .                                 ",
"                                . . t z ;XjXmXpXXXW.W.XXpXmXcX5Xo.A x ^ ` y.q.9.;.&.n F 1 X . .                                 ",
"                                . . t z ;XjXmXpXXXW.W.XXpXmXcX5Xo.A x ^ ` y.q.9.;.&.n F 1 X . .                                 ",
"                                . . t z ;XjXmXpXXXW.W.XXpXmXcX5Xo.A x ^ ` y.q.9.;.&.n F 1 X . .                                 ",
"                                . . t z ;XjXmXpXXXW.W.XXpXmXcX5Xo.A x ^ ` y.q.9.;.&.n F 1 X . .                                 ",
"                                . . t z ;XjXmXpXXXW.W.XXpXmXcX5Xo.A x ^ ` y.q.9.;.&.n F 1 X . .                                 ",
"                                . . t z ;XjXmXpXXXW.W.XXpXmXcX5Xo.A x ^ ` y.q.9.;.&.n F 1 X . .                                 ",
"                                . . t z ;XjXmXpXXXW.W.XXpXmXcX5Xo.A x ^ ` y.q.9.;.&.n F 1 X . .                                 ",
"                                . . t z ;XjXmXpXXXW.W.XXpXmXcX5Xo.A x ^ ` y.q.9.;.&.n F 1 X . .                                 ",
"                                . . t z ;XjXmXpXXXW.W.XXpXmXcX5Xo.A x ^ ` y.q.9.;.&.n F 1 X . .                                 ",
"                                . . t z ;XjXmXpXXXW.W.XXpXmXcX5Xo.A x ^ ` y.q.9.;.&.n F 1 X . .                                 ",
"                                . . t z ;XjXmXpXXXW.W.XXpXmXcX5Xo.A x ^ ` y.q.9.;.&.n F 1 X . .                                 ",
"                                . . t z ;XjXmXpXXXW.W.XXpXmXcX5Xo.A x ^ ` y.q.9.;.&.n F 1 X . .                                 ",
"                                . . t z ;XjXmXpXXXW.W.XXpXmXcX5Xo.A x ^ ` y.q.9.;.&.n F 1 X . .                                 ",
"                                . . t j -XaXhX9X`.E.E.{.eXlXkX,X..Z x ^ ` y.i.6.>.N b D < X . .                                 ",
"                                  . t h #X-X=X'.P.l.z.Y.].1X,Xo. .C x ^ ` y.r.<.W K D 5 - X .                                   ",
"                                      a h j | V.N.g.h.F.H.^... .{ v x ^ ` y.e.#.I 6 < - &                                       ",
"                                        t t i T ! 8.u.[ ] S Z C v c x ^ ` y.7.Q q = X X                                         ",
"                                        . . % 0 ~ D.G.s.' V x x x x B / ) 5.3.Y 8 + . .                                         ",
"                                        . . : d V.).[.K.S.' ^ ^ ^ ^ / ( _ 4.<.I 4 + . .                                         ",
"                                        . . , g Z.7XrXoXK.s.` ` ` ` ) _ :.=.+.L 3 + . .                                         ",
"                                        . . e k &XhXvXrX[.G.y.y.y.y.5.4.=.*.N F 2 X . .                                         ",
"                                        . . t j -XaXdX9X`.c.q.q.q.q.0.1.%.N b D < X . .                                         ",
"                                          . t h #X-X*XA.J.g.9.9.9.9.1.+.E J D 5 - X .                                           ",
"                                              a h j } m.M.2.;.;.;.;.%.E F 6 < - &                                               ",
"                                                t t u w U O.&.&.&.&.N J 6 * X X                                                 ",
"                                                . . X < D b n n n n b D < X . .                                                 ",
"                                                  . X - 5 D F F F F D 5 - X .                                                   ",
"                                                      & - < 1 1 1 1 < - &                                                       ",
"                                                        X X X X X X X X                                                         ",
"                                                        . . . . . . . .                                                         ",
"                                                        . . . . . . . .                                                         "
};
