/* XPM */
static char *aa3c416e67524f14d643e6b40e8b0275DVDDO3PvWnHGyMfh[] = {
/* columns rows colors chars-per-pixel */
"64 64 104 2 ",
"   c #010000",
".  c #0A0602",
"X  c #0C0803",
"o  c #100702",
"O  c #140B04",
"+  c #1C0E05",
"@  c #1E1106",
"#  c #230F04",
"$  c #231206",
"%  c #291305",
"&  c #231609",
"*  c #2E1709",
"=  c #2B1909",
"-  c #341605",
";  c #391907",
":  c #331D0A",
">  c #3B1D0B",
",  c #36200B",
"<  c #39230E",
"1  c #3D2610",
"2  c #401F0C",
"3  c #41220C",
"4  c #4D250D",
"5  c #45280D",
"6  c #4A2B0E",
"7  c #512308",
"8  c #5A270A",
"9  c #5F2A0B",
"0  c #452B12",
"q  c #4D2F12",
"w  c #532910",
"e  c #5C2F11",
"r  c #543416",
"t  c #5C3611",
"y  c #5F3812",
"u  c #5A3918",
"i  c #632C0C",
"p  c #682F0D",
"a  c #6D300C",
"s  c #74350E",
"d  c #78340D",
"f  c #653213",
"g  c #693413",
"h  c #633B15",
"j  c #6B3C14",
"k  c #663F18",
"l  c #773610",
"z  c #773B17",
"x  c #7E3A11",
"c  c #6E4114",
"v  c #66401B",
"b  c #6D451D",
"n  c #734315",
"m  c #764618",
"M  c #7E4318",
"N  c #7C4B1B",
"B  c #7D4F22",
"V  c #853E14",
"C  c #854016",
"Z  c #894117",
"A  c #804518",
"S  c #8A441A",
"D  c #844D1B",
"F  c #8D491B",
"G  c #90471A",
"H  c #944B1C",
"J  c #984F1D",
"K  c #89511A",
"L  c #95541C",
"P  c #9C541D",
"I  c #9D5B1D",
"U  c #A25B1E",
"Y  c #A35D1E",
"T  c #A45E1F",
"R  c #A6601F",
"E  c #A7621F",
"W  c #825121",
"Q  c #845323",
"!  c #855424",
"~  c #915821",
"^  c #945B23",
"/  c #9A5F27",
"(  c #945D28",
")  c #9E632A",
"_  c #A16021",
"`  c #A36222",
"'  c #A86320",
"]  c #AA6421",
"[  c #AC6623",
"{  c #AD6724",
"}  c #AF6926",
"|  c #AB6928",
" . c #AB6A2B",
".. c #AE6B2B",
"X. c #B16B26",
"o. c #B36C28",
"O. c #B66F2B",
"+. c #B16E2D",
"@. c #BA722D",
"#. c #BC742F",
"$. c #B67231",
"%. c #BD7530",
"&. c #C07833",
"*. c #C27A34",
/* pixels */
"*.*.*.*.! X t [ %.*.*.*.*.*.*.*.*.b X n } &.*.*.*.*.*.*.*.*.r @ K o.*.*.*.*.*.*.*.*.$.1 : I O.*.*.*.*.*.*.*.*.) & 6 ' @.*.*.*.*.",
"O.O.O.O.N X t ] o.O.O.O.O.O.O.O.O.k X n [ O.O.O.O.O.O.O.O.O.r @ K { O.O.O.O.O.O.O.O.| < : I X.O.O.O.O.O.O.O.O.^ & 6 _ X.O.O.O.O.",
"R R R R n X t R R T R R R R R R R t X n R R R R R R R R R R 6 @ D T R R R R R R R R I : : I R R R R R R R R R K @ 6 R R R R R R ",
"P P P Y n X w P P P P P P P P P T t X g P P P P P P P P P R 6 + M P P P P P P P P I I : : H P P P P P P P P U K @ 3 P P P P P P ",
"f f f j 6 . > f f f f f f f f g n 3   3 f f f f f f f f g n : O w f f f f f f f f g j & $ e f f f f f f f f j t O * f f f f f f ",
"X X X X .     X X X X X X X X X X       X X X X X X X X X X     . X X X X X X X X X X     X X X X X X X X X X X     X X X X X X ",
"t k b b b b b b b b v & @ t k b b b b b b b b u O = y v b b b b b b b b q . : h v b b b b b b b b 1   3 h b b b b b b b b b :   ",
"R X.%.%.%.%.%.%.%.%.+.< : I o.%.%.%.%.%.%.%.%./ & 6 ' O.%.%.%.%.%.%.%.%.W X t ] @.%.%.%.%.%.%.%.%.v X n { @.%.%.%.%.%.%.%.%.r   ",
"R ] [ [ [ [ [ [ [ [ _ , : I ] [ [ [ [ [ [ [ [ K $ 6 R ] [ [ [ [ [ [ [ [ m X t ' ] [ [ [ [ [ [ [ [ h X n ' [ [ [ [ [ [ [ [ [ 6   ",
"P P P P P P P P P Y I : : L P P P P P P P P Y K @ 5 P P P P P P P P I T n X t P P P P P P P P U R t X j P P P P P P P P U R 6   ",
"S S S S S S S S S H L : * C S S S S S S S S L N @ > S S S S S S S S S L j X 4 S S S S S S S S F P t X e S S S S S S S S H I 5   ",
"* * * * * * * * * : : o X * * * * * * * * * : = X O * * * * * * * * * : &   + * * * * * * * * * : @   $ * * * * * * * * : : O   ",
"1 1 1 1 =   @ , < 1 1 1 1 1 1 1 1 &   & : : : * * * * % $ $ $ $ $ $ $ $ % * * * * : : o o : < 1 1 1 1 1 1 1 1 : X O : < 1 1 1 1 ",
"$.$.$.$.B X t _ +.$.$.$.$.$.$.$.$.v X j I I H S S S S l a a a a a a a a l S S S S H L : : L | $.$.$.$.$.$.$.$.( & 5 I ..$.$.$.$.",
"o.o.o.o.N X t ] X.o.o.o.o.o.o.o.o.k X n Y P J G V V x 4 - - - - - - - - 4 x V V G J H : : I } o.o.o.o.o.o.o.o.~ & 6 ' } o.o.o.o.",
"Y Y Y R n X t Y Y Y Y Y Y Y Y T R t X n P H G C p i 8 +                 + 8 i p C G S * : P Y Y Y Y Y Y Y Y R K @ 5 Y Y Y Y Y Y ",
"J J J Y n X w J J J J J J J J P T t X g J H V p % O O                     O O % p V S * * F J J J J J J J J U K @ 3 J J J J J J ",
"w w w t 3   * w w w w w w w w w t :   > f V i - X                             X - i x % + 4 w w w w w w w w t 6 o $ w w w w w w ",
"X X X X X X X X X X X     X X X X X X X % a -                                     - a % X X X X X .   . X X X X X X X X X X     ",
"n N ! ! ! ! ! ! ! ! B = = B ! W m n n g g s -                                     - s g g n N ! ! q . 6 N Q ! ! ! ! ! ! ! ! 1   ",
"R } @.@.@.@.@.@.@.@...< < ..@.O.] T U J Z d -                                     - d Z J U } @.@.v X n { @.@.@.@.@.@.@.@.@.r   ",
"R ' ' ' ' ' ' ' ' ' I : : I ' ' R I H H Z d -                                     - d Z H H U ' ' y X n R ' ' ' ' ' ' ' ' ' 6   ",
"P P P P P P P P P U I : : H P P P J G Z a ; O                                     O ; a Z G J P T t X g P P P P P P P P I R 6   ",
"z z z z z z z z z M N = $ z z z z z z s 7                                             7 s z z z D 6 . w z z z z z z z z M D <   ",
"+ + + + + + + + + @ @ X X + + + + + $ 8 7                                             7 8 $ + + @ o   O + + + + + + + + + @ X   ",
"r r r r 1   = 6 r r r r r r q 6 6 5 3 i 7 .                                           7 i 3 5 6 r r r r r r r 0 O $ 6 r r r r r ",
"&.&.&.&.Q X t [ #.&.&.&.&.&.o.R R P G x 7                                             7 x G P [ #.&.&.&.&.&.&.) & 6 ' @.&.&.&.&.",
"} } } } N X t ' } } } } } } ] R R P G x 7                                             7 x G P ' } } } } } } } K $ 6 R { } } } } ",
"U U U R n X t U U U U U U U U U U P G x 7                                           . 7 x G P U U U U U U U T K @ 5 U U U U U U ",
"H H J U n X w H H H H H H H H H H H G x 7                                             7 x G H H H H H H H H I K @ 3 H H H H H H ",
"3 3 3 5 :   $ 3 3 3 3 3 3 3 3 3 3 3 3 i 7                                             7 i 3 3 3 3 3 3 3 3 3 5 < X + 3 3 3 < 3 3 ",
"@ & & & & & & & & & & X X & & @ @ @ $ 8 7                                             7 8 $ @ $ & O   O $ & & & & & & & & & O   ",
"K ~ ) ) ) ) ) ) ) ) ( : : ( ~ K K A z s 7                                             7 s z A K / u X t K ) ) ) ) ) ) ) ) ) 0   ",
"R } O.O.O.O.O.O.O.O.| < < | } R R P G x 7                                             7 x G P ] o.k X n [ O.O.O.O.O.O.O.O.O.r   ",
"R R R R R R T R T R I : : I R R R P G x 7                                             7 V G P R R t X n R R R R R R R R R R 6   ",
"P P P P P P P P P I I : : H P P P J G x 7                                             7 x G J P T t X g P P P P P P P P P R 6   ",
"f f f f f f f f f g j & $ e f f f f f s 7                                             7 s f f g n 3   3 f f f f f f f f g n :   ",
"X X X X X X X X X X X     X X X X X o 7 7                                             7 7 o X X X       X X X X X X X X X X     ",
"b b b b q . : h v b b b b b k t t t w a 7                                             7 a w t h v b b b b b b u O = t k b b b b ",
"%.%.%.%.W X t ] @.%.%.%.%.%.X.R R P G x 7                                             7 x G P ] @.%.%.%.%.%.%./ & 6 _ O.%.%.%.%.",
"[ [ [ [ m X t ' ] [ [ [ [ [ ] R R P G x 7                                             7 x G P ' ] [ [ [ [ [ [ K $ 6 R ] [ [ [ [ ",
"P P I T n X t P P P P P P P P P P P G x 7                                             7 x G P P P P P P P P Y K @ 5 P P P P P P ",
"S S S L j X 4 S S S S S S S S S S S S x 7                                             7 x S S S S S S S S S L N @ > S S S S S S ",
"* * * : &   + * * * * * * * * * * * : 9 7                                             7 9 : * * * * * * * * : = X O * * * * * * ",
": < 1 1 1 1 1 1 1 1 < O O < < , : : : 9 7                                             7 9 : : , < &   & , 1 1 1 1 1 1 1 1 1 @   ",
"I | $.$.$.$.$.$.$.$.| < < | | I I L S x 7                                             7 x S L _ +.v X j _ $.$.$.$.$.$.$.$.$.r   ",
"R [ o.o.o.o.o.o.o.o.| < < | [ R R P G x 7                                             7 x G P ] X.k X n ] o.o.o.o.o.o.o.o.o.q   ",
"Y Y Y Y Y Y Y Y Y T I : : P Y Y Y P G x 7                                             7 x G P T R t X n Y Y Y Y Y Y Y Y T R 6   ",
"J J J J J J J J J P I : * F J J J J G x 7                                             7 x G J P T t X g J J J J J J J J P R 6   ",
"w w w w w w w w w e t @ + 4 w w w w w a 7                                             7 a w w w t :   > w w w w w w w w w t =   ",
"X X X X X     X X X X X X X X X X X o 7 7                                           . 7 7 o X X X X X X X X X X     X X X X X X ",
"! ! ! ! u X 3 m W ! ! ! ! ! N n n j f s 7                                             7 s f j m W ! ! ! ! ! ! b @ : n D ! ! ! ! ",
"@.@.@.@.D X t ] O.@.@.@.@.@.} R R P G x 7                                             7 x G P ] O.@.@.@.@.@.@.^ & 6 ' O.@.@.@.@.",
"' ' ' ' n X t R ' ' ' ' ' ' ' R R P G x 7 .                                         . 7 x G P R ' ' ' ' ' ' ' K $ 6 R ' ' ' ' ' ",
"P P P Y n X e P P P P P P P P P P J G x 7                                             7 x G J P P P P P P P Y K @ 5 P P P P P P ",
"z z z A t X 3 z z z z z z z z z z z z s 7 .                                           7 s z z z z z z z z z A c + : z z z z z z ",
"+ + + @ O   o + + + + + + + + + + + $ 8 7                                             7 8 $ + + + + + + + + @ +   X + + + + + + ",
"6 q r r r r r r r r r @ O 5 6 6 6 5 3 i 7                                             7 i 3 5 6 r :   : q r r r r r r r r r &   ",
"R o.&.&.&.&.&.&.&.&.$.1 : I R R R P G x 7                                             7 x G P [ #.b X n } %.&.&.&.&.&.&.&.&.r   ",
"R ] } } } } } } } } _ , : I R R R P G x 7                                             7 x G P ' } h X n ] } } } } } } } } } q   ",
"U U U U U U U U U Y I : : L U U U P G x 7                                             7 x G P Y R t X j U U U U U U U U Y R 6   ",
"H H H H H H H H H P I : * S H H H H G x 7                                             7 x G H J Y t X f H H H H H H H H P R 6   ",
"3 3 3 3 3 3 3 3 3 5 5 O O > 3 3 3 3 2 ; #                                             # ; 2 3 3 5 =   * 3 3 3 3 3 3 3 3 3 6 $   ",
"                                                                                                                                "
};
