/* XPM */
static char *_fb147c6d9014161e8211a05e9f5f94c3MAImngb4XHD1amD[] = {
/* columns rows colors chars-per-pixel */
"64 64 113 2 ",
"   c black",
".  c #070301",
"X  c #090602",
"o  c #0F0A04",
"O  c #100803",
"+  c #130A04",
"@  c #150B05",
"#  c #150D06",
"$  c #180F06",
"%  c #1B1107",
"&  c #221107",
"*  c #271707",
"=  c #281609",
"-  c #2B1A0A",
";  c #2D1D0C",
":  c #301809",
">  c #371B0A",
",  c #391D0B",
"<  c #391E0C",
"1  c #3E220E",
"2  c #43210D",
"3  c #44230D",
"4  c #46250F",
"5  c #49290E",
"6  c #4C2C0E",
"7  c #50280F",
"8  c #422710",
"9  c #482710",
"0  c #402811",
"q  c #472B12",
"w  c #492E13",
"e  c #4F2F11",
"r  c #5A2C11",
"t  c #5C2E11",
"y  c #4C3014",
"u  c #523115",
"i  c #543316",
"p  c #563516",
"a  c #5E3212",
"s  c #583718",
"d  c #603113",
"f  c #643213",
"g  c #653314",
"h  c #693716",
"j  c #663C13",
"k  c #673917",
"l  c #6E3F14",
"z  c #6B3F1A",
"x  c #713815",
"c  c #773F19",
"v  c #7E3F18",
"b  c #6E411B",
"n  c #6A431C",
"m  c #704215",
"M  c #744517",
"N  c #784217",
"B  c #70451B",
"V  c #76481F",
"C  c #764A20",
"Z  c #794C20",
"A  c #7C4C20",
"S  c #814018",
"D  c #844219",
"F  c #834519",
"G  c #86451B",
"H  c #8A461B",
"J  c #8E471B",
"K  c #89471C",
"L  c #804B18",
"P  c #834B1F",
"I  c #894A1E",
"U  c #90491D",
"Y  c #934E1C",
"T  c #964D1E",
"R  c #8F541B",
"E  c #92511B",
"W  c #92541B",
"Q  c #95571C",
"!  c #9A521D",
"~  c #985A1E",
"^  c #9F591E",
"/  c #9F5D1E",
"(  c #A45F1F",
")  c #A7621F",
"_  c #815122",
"`  c #8A5420",
"'  c #8E5624",
"]  c #905020",
"[  c #995623",
"{  c #9C5623",
"}  c #915A25",
"|  c #9A5B26",
" . c #9C5D27",
".. c #945D28",
"X. c #A15E27",
"o. c #A46324",
"O. c #AA6522",
"+. c #A06328",
"@. c #A7662B",
"#. c #A9642A",
"$. c #A7692D",
"%. c #AA6B2D",
"&. c #AC6C2E",
"*. c #B16B27",
"=. c #B06C2B",
"-. c #B26F2F",
";. c #B8712C",
":. c #B37030",
">. c #B77230",
",. c #BA7331",
"<. c #B97432",
"1. c #BF7731",
"2. c #BF7833",
/* pixels */
"                                                                                                                                ",
"                                                                                                                                ",
"      X o # $ $ $ $ $ $ $ $ $ $ $ $ $ $ $ $ $ $ $ $ $ $ $ $ $ $ $ $ $ $ $ $ $ $ $ $ $ $ $ $ $ $ $ $ $ $ $ $ $ $ $ $ # o X       ",
"    X % ; 0 w w w w w w w w w w w w w w w w w w w w w w w w w w w w w w w w w w w w w w w w w w w w w w w w w w w w 0 ; % X     ",
"    o ; y n Z Z Z Z Z Z Z Z Z Z Z Z Z Z Z Z Z Z Z Z Z Z Z Z Z Z Z Z Z Z Z Z Z Z Z Z Z Z Z Z Z Z Z Z Z Z Z Z Z Z Z Z n y ; o     ",
"    # 0 n ..%.%.%.%.%.%.%.%.%.%.%.%.%.%.%.%.%.%.%.%.%.%.%.%.%.%.%.%.%.%.%.%.%.%.%.%.%.%.%.%.%.%.%.%.%.%.%.%.%.%.%.%...n 0 #     ",
"    $ w Z %.2.<.:.&.&.-.>.1.1.1.1.1.1.1.1.1.1.1.1.1.1.1.1.1.1.1.1.1.1.1.1.1.1.1.1.1.1.1.1.1.1.1.1.1.1.>.-.&.&.-.>.,.@.V q $     ",
"    $ w Z %.<.$..._ _ } +.=.;.;.;.;.;.;.;.;.;.;.;.;.;.;.;.;.;.;.;.;.;.;.;.;.;.;.;.;.;.;.;.;.;.;.;.;.=.+.} _ _ '  .#.| b 8 #     ",
"    $ w Z %.:...C s p B ` o.*.*.*.*.*.*.*.*.*.*.*.*.*.*.*.*.*.*.*.*.*.*.*.*.*.*.*.*.*.*.*.*.*.*.*.*.o.` B p i z P [ ] k 1 @     ",
"    $ w Z %.&._ s ; - e M ~ O.O.O.O.O.O.O.O.O.O.O.O.O.O.O.O.O.O.O.O.O.O.O.O.O.O.O.O.O.O.O.O.O.O.O.O.~ M e - = 9 h K G d < +     ",
"    $ w Z %.&._ p - * 6 m Q ) ) ) ) ) ) ) ) ) ) ) ) ) ) ) ) ) ) ) ) ) ) ) ) ) ) ) ) ) ) ) ) ) ) ) ) Q m 6 * * 3 f S S t > O     ",
"    $ w Z %.-.} B e 6 j L ~ ) ) ) ) ) ) ) ) ) ) ) ) ) ) ) ) ) ) ) ) ) ) ) ) ) ) ) ) ) ) ) ) ) ) ) ) ~ L j 6 5 a x H S t > O     ",
"    $ w Z %.>.+.` M m L R / ) ) ) ) ) ) ) ) ) ) ) ) ) ) ) ) ) ) ) ) ) ) ) ) ) ) ) ) ) ) ) ) ) ) ) ) / R L m l N F J S t > O     ",
"    $ w Z %.1.=.o.~ Q ~ / ) ) ) ) ) ) ) ) ) ) ) ) ) ) ) ) ) ) ) ) ) ) ) ) ) ) ) ) ) ) ) ) ) ) ) ) ) ) / ~ Q W E Y U S t > O     ",
"    $ w Z %.1.;.*.O.) ) ) ) ) ) ) ) ) ) ) ) ) ) ) ) ) ) ) ) ) ) ) ) ) ) ) ) ) ) ) ) ) ) ) ) ) ) ) ) ) ) ) ) ( ^ ! T S t > O     ",
"    $ w Z %.1.;.*.O.) ) ) ) ) ) ) ) ) ) ) ) ) ) ) ) ) ) ) ) ) ) ) ) ) ) ) ) ) ) ) ) ) ) ) ) ) ) ) ) ) ) ) ) ( ^ ! T S t > O     ",
"    $ w Z %.1.;.*.O.) ) ) ) ) ) ) ) ) ) ) ) ) ) ) ) ) ) ) ) ) ) ) ) ) ) ) ) ) ) ) ) ) ) ) ) ) ) ) ) ) ) ) ) ( ^ ! T S t > O     ",
"    $ w Z %.1.;.*.O.) ) ) ) ) ) ) ) ) ) ) ) ) ) ) ) ) ) ) ) ) ) ) ) ) ) ) ) ) ) ) ) ) ) ) ) ) ) ) ) ) ) ) ) ( ^ ! T S t > O     ",
"    $ w Z %.1.;.*.O.) ) ) ) ) ) ) ) ) ) ) ) ) ) ) ) ) ) ) ) ) ) ) ) ) ) ) ) ) ) ) ) ) ) ) ) ) ) ) ) ) ) ) ) ( ^ ! T S t > O     ",
"    $ w Z %.1.;.*.O.) ) ) ) ) ) ) ) ) ) ) ) ) ) ) ) ) ) ) ) ) ) ) ) ) ) ) ) ) ) ) ) ) ) ) ) ) ) ) ) ) ) ) ) ( ^ ! T S t > O     ",
"    $ w Z %.1.;.*.O.) ) ) ) ) ) ) ) ) ) ) ) ) ) ) ) ) ) ) ) ) ) ) ) ) ) ) ) ) ) ) ) ) ) ) ) ) ) ) ) ) ) ) ) ( ^ ! T S t > O     ",
"    $ w Z %.1.;.*.O.) ) ) ) ) ) ) ) ) ) ) ) ) ) ) ) ) ) ) ) ) ) ) ) ) ) ) ) ) ) ) ) ) ) ) ) ) ) ) ) ) ) ) ) ( ^ ! T S t > O     ",
"    $ w Z %.1.;.*.O.) ) ) ) ) ) ) ) ) ) ) ) ) ) ) ) ) ) ) ) ) ) ) ) ) ) ) ) ) ) ) ) ) ) ) ) ) ) ) ) ) ) ) ) ( ^ ! T S t > O     ",
"    $ w Z %.1.;.*.O.) ) ) ) ) ) ) ) ) ) ) ) ) ) ) ) ) ) ) ) ) ) ) ) ) ) ) ) ) ) ) ) ) ) ) ) ) ) ) ) ) ) ) ) ( ^ ! T S t > O     ",
"    $ w Z %.1.;.*.O.) ) ) ) ) ) ) ) ) ) ) ) ) ) ) ) ) ) ) ) ) ) ) ) ) ) ) ) ) ) ) ) ) ) ) ) ) ) ) ) ) ) ) ) ( ^ ! T S t > O     ",
"    $ w Z %.1.;.*.O.) ) ) ) ) ) ) ) ) ) ) ) ) ) ) ) ) ) ) ) ) ) ) ) ) ) ) ) ) ) ) ) ) ) ) ) ) ) ) ) ) ) ) ) ( ^ ! T S t > O     ",
"    $ w Z %.1.;.*.O.) ) ) ) ) ) ) ) ) ) ) ) ) ) ) ) ) ) ) ) ) ) ) ) ) ) ) ) ) ) ) ) ) ) ) ) ) ) ) ) ) ) ) ) ( ^ ! T S t > O     ",
"    $ w Z %.1.;.*.O.) ) ) ) ) ) ) ) ) ) ) ) ) ) ) ) ) ) ) ) ) ) ) ) ) ) ) ) ) ) ) ) ) ) ) ) ) ) ) ) ) ) ) ) ( ^ ! T S t > O     ",
"    $ w Z %.1.;.*.O.) ) ) ) ) ) ) ) ) ) ) ) ) ) ) ) ) ) ) ) ) ) ) ) ) ) ) ) ) ) ) ) ) ) ) ) ) ) ) ) ) ) ) ) ( ^ ! T S t > O     ",
"    $ w Z %.1.;.*.O.) ) ) ) ) ) ) ) ) ) ) ) ) ) ) ) ) ) ) ) ) ) ) ) ) ) ) ) ) ) ) ) ) ) ) ) ) ) ) ) ) ) ) ) ( ^ ! T S t > O     ",
"    $ w Z %.1.;.*.O.) ) ) ) ) ) ) ) ) ) ) ) ) ) ) ) ) ) ) ) ) ) ) ) ) ) ) ) ) ) ) ) ) ) ) ) ) ) ) ) ) ) ) ) ( ^ ! T S t > O     ",
"    $ w Z %.1.;.*.O.) ) ) ) ) ) ) ) ) ) ) ) ) ) ) ) ) ) ) ) ) ) ) ) ) ) ) ) ) ) ) ) ) ) ) ) ) ) ) ) ) ) ) ) ( ^ ! T S t > O     ",
"    $ w Z %.1.;.*.O.) ) ) ) ) ) ) ) ) ) ) ) ) ) ) ) ) ) ) ) ) ) ) ) ) ) ) ) ) ) ) ) ) ) ) ) ) ) ) ) ) ) ) ) ( ^ ! T S t > O     ",
"    $ w Z %.1.;.*.O.) ) ) ) ) ) ) ) ) ) ) ) ) ) ) ) ) ) ) ) ) ) ) ) ) ) ) ) ) ) ) ) ) ) ) ) ) ) ) ) ) ) ) ) ( ^ ! T S t > O     ",
"    $ w Z %.1.;.*.O.) ) ) ) ) ) ) ) ) ) ) ) ) ) ) ) ) ) ) ) ) ) ) ) ) ) ) ) ) ) ) ) ) ) ) ) ) ) ) ) ) ) ) ) ( ^ ! T S t > O     ",
"    $ w Z %.1.;.*.O.) ) ) ) ) ) ) ) ) ) ) ) ) ) ) ) ) ) ) ) ) ) ) ) ) ) ) ) ) ) ) ) ) ) ) ) ) ) ) ) ) ) ) ) ( ^ ! T S t > O     ",
"    $ w Z %.1.;.*.O.) ) ) ) ) ) ) ) ) ) ) ) ) ) ) ) ) ) ) ) ) ) ) ) ) ) ) ) ) ) ) ) ) ) ) ) ) ) ) ) ) ) ) ) ( ^ ! T S t > O     ",
"    $ w Z %.1.;.*.O.) ) ) ) ) ) ) ) ) ) ) ) ) ) ) ) ) ) ) ) ) ) ) ) ) ) ) ) ) ) ) ) ) ) ) ) ) ) ) ) ) ) ) ) ( ^ ! T S t > O     ",
"    $ w Z %.1.;.*.O.) ) ) ) ) ) ) ) ) ) ) ) ) ) ) ) ) ) ) ) ) ) ) ) ) ) ) ) ) ) ) ) ) ) ) ) ) ) ) ) ) ) ) ) ( ^ ! T S t > O     ",
"    $ w Z %.1.;.*.O.) ) ) ) ) ) ) ) ) ) ) ) ) ) ) ) ) ) ) ) ) ) ) ) ) ) ) ) ) ) ) ) ) ) ) ) ) ) ) ) ) ) ) ) ( ^ ! T S t > O     ",
"    $ w Z %.1.;.*.O.) ) ) ) ) ) ) ) ) ) ) ) ) ) ) ) ) ) ) ) ) ) ) ) ) ) ) ) ) ) ) ) ) ) ) ) ) ) ) ) ) ) ) ) ( ^ ! T S t > O     ",
"    $ w Z %.1.;.*.O.) ) ) ) ) ) ) ) ) ) ) ) ) ) ) ) ) ) ) ) ) ) ) ) ) ) ) ) ) ) ) ) ) ) ) ) ) ) ) ) ) ) ) ) ( ^ ! T S t > O     ",
"    $ w Z %.1.;.*.O.) ) ) ) ) ) ) ) ) ) ) ) ) ) ) ) ) ) ) ) ) ) ) ) ) ) ) ) ) ) ) ) ) ) ) ) ) ) ) ) ) ) ) ) ( ^ ! T S t > O     ",
"    $ w Z %.1.;.*.O.) ) ) ) ) ) ) ) ) ) ) ) ) ) ) ) ) ) ) ) ) ) ) ) ) ) ) ) ) ) ) ) ) ) ) ) ) ) ) ) ) ) ) ) ( ^ ! T S t > O     ",
"    $ w Z %.1.;.*.O.) ) ) ) ) ) ) ) ) ) ) ) ) ) ) ) ) ) ) ) ) ) ) ) ) ) ) ) ) ) ) ) ) ) ) ) ) ) ) ) ) ) ) ) ( ^ ! T S t > O     ",
"    $ w Z %.1.;.*.O.) ) ) ) ) ) ) ) ) ) ) ) ) ) ) ) ) ) ) ) ) ) ) ) ) ) ) ) ) ) ) ) ) ) ) ) ) ) ) ) ) ) ) ) ( ^ ! T S t > O     ",
"    $ w Z %.1.;.*.O.) ) ) ) ) ) ) ) ) ) ) ) ) ) ) ) ) ) ) ) ) ) ) ) ) ) ) ) ) ) ) ) ) ) ) ) ) ) ) ) ) ) ) ) ( ^ ! T S t > O     ",
"    $ w Z %.1.;.*.O.) ) ) ) ) ) ) ) ) ) ) ) ) ) ) ) ) ) ) ) ) ) ) ) ) ) ) ) ) ) ) ) ) ) ) ) ) ) ) ) ) ) ) ) ( ^ ! T S t > O     ",
"    $ w Z %.1.;.*.O.) ) ) ) ) ) ) ) ) ) ) ) ) ) ) ) ) ) ) ) ) ) ) ) ) ) ) ) ) ) ) ) ) ) ) ) ) ) ) ) ) ) ) ) ( ^ ! T S t > O     ",
"    $ w Z %.1.;.*.O.) ) ) ) ) ) ) ) ) ) ) ) ) ) ) ) ) ) ) ) ) ) ) ) ) ) ) ) ) ) ) ) ) ) ) ) ) ) ) ) ) ) ) ) ( ^ ! T S t > O     ",
"    $ w Z %.1.=.o.~ Q ~ / ) ) ) ) ) ) ) ) ) ) ) ) ) ) ) ) ) ) ) ) ) ) ) ) ) ) ) ) ) ) ) ) ) ) ) ) ) ) / ~ Q W E T U S t > O     ",
"    $ w Z %.>.+.` M m L R / ) ) ) ) ) ) ) ) ) ) ) ) ) ) ) ) ) ) ) ) ) ) ) ) ) ) ) ) ) ) ) ) ) ) ) ) / R L m l N F J S t > O     ",
"    $ w Z %.-.} B e 6 j L ~ ) ) ) ) ) ) ) ) ) ) ) ) ) ) ) ) ) ) ) ) ) ) ) ) ) ) ) ) ) ) ) ) ) ) ) ) ~ L j 6 5 a x H S t > O     ",
"    $ w Z %.&._ p - * 6 m Q ) ) ) ) ) ) ) ) ) ) ) ) ) ) ) ) ) ) ) ) ) ) ) ) ) ) ) ) ) ) ) ) ) ) ) ) Q m 6 * * 3 f S S t > O     ",
"    $ q V @.@.A u = * 5 l W ( ( ( ( ( ( ( ( ( ( ( ( ( ( ( ( ( ( ( ( ( ( ( ( ( ( ( ( ( ( ( ( ( ( ( ( W l 5 * & 2 d S S t > O     ",
"    # 8 b | X.P k 4 3 a N E ^ ^ ^ ^ ^ ^ ^ ^ ^ ^ ^ ^ ^ ^ ^ ^ ^ ^ ^ ^ ^ ^ ^ ^ ^ ^ ^ ^ ^ ^ ^ ^ ^ ^ ^ ^ E N a 3 2 r x D S t > O     ",
"    @ 1 k ] { I c g f x F Y ! ! ! ! ! ! ! ! ! ! ! ! ! ! ! ! ! ! ! ! ! ! ! ! ! ! ! ! ! ! ! ! ! ! ! ! Y F x f d x v J S t > O     ",
"    + < d G T U H D S H J U T T T T T T T T T T T T T T T T T T T T T T T T T T T T T T T T T T T T U J H S S D J U S t > O     ",
"    O : 7 x S S S S S S S S S S S S S S S S S S S S S S S S S S S S S S S S S S S S S S S S S S S S S S S S S S S S x 7 : O     ",
"    X & , 7 t t t t t t t t t t t t t t t t t t t t t t t t t t t t t t t t t t t t t t t t t t t t t t t t t t t t 7 , & X     ",
"    . @ & : > > > > > > > > > > > > > > > > > > > > > > > > > > > > > > > > > > > > > > > > > > > > > > > > > > > > : & @ .     ",
"      . X O O O O O O O O O O O O O O O O O O O O O O O O O O O O O O O O O O O O O O O O O O O O O O O O O O O O O O X .       ",
"                                                                                                                                ",
"                                                                                                                                "
};
