/* XPM */
static char *dc0961c215ef4fe0adfaf17c4a85209dGir0qAfYrNdx50Uz[] = {
/* columns rows colors chars-per-pixel */
"64 64 206 2 ",
"   c None",
".  c #1A0300",
"X  c #19060A",
"o  c #000319",
"O  c #070314",
"+  c #230601",
"@  c #290001",
"#  c #250901",
"$  c #2B0B01",
"%  c #390603",
"&  c #291002",
"*  c #361202",
"=  c #3E1302",
"-  c #341819",
";  c #311016",
":  c #050D2C",
">  c #0D0B22",
",  c #1F1824",
"<  c #0E1938",
"1  c #0D1739",
"2  c #1B1D3E",
"3  c #2E1B2C",
"4  c #232239",
"5  c #410006",
"6  c #470A06",
"7  c #540209",
"8  c #590108",
"9  c #540206",
"0  c #451502",
"q  c #4D1A03",
"w  c #4D1804",
"e  c #521B03",
"r  c #5B1F04",
"t  c #421F1C",
"y  c #63020B",
"u  c #6B020C",
"i  c #74020E",
"p  c #7A030C",
"a  c #6D1314",
"s  c #4C220F",
"d  c #5C2004",
"f  c #59230B",
"g  c #4E2B12",
"h  c #4A231A",
"j  c #562A14",
"k  c #582B19",
"l  c #533017",
"z  c #56351E",
"x  c #5C3219",
"c  c #612205",
"v  c #67290B",
"b  c #6B3419",
"n  c #683014",
"m  c #753819",
"M  c #622A1B",
"N  c #5A1638",
"B  c #700C27",
"V  c #7A0C23",
"C  c #720F2A",
"Z  c #7B1A34",
"A  c #77152F",
"S  c #462A28",
"D  c #583424",
"F  c #522A23",
"G  c #6A3A27",
"H  c #743D21",
"J  c #77292F",
"K  c #78492C",
"L  c #0C1B47",
"P  c #0F2052",
"I  c #1E305E",
"U  c #25274D",
"Y  c #27284D",
"T  c #36204F",
"R  c #3D214E",
"E  c #3B2643",
"W  c #2A2455",
"Q  c #332050",
"!  c #362959",
"~  c #23355F",
"^  c #29365B",
"/  c #3D385B",
"(  c #152B64",
")  c #182B65",
"_  c #1B336E",
"`  c #1F3064",
"'  c #1D3670",
"]  c #293967",
"[  c #363B61",
"{  c #233F79",
"}  c #472E4D",
"|  c #623249",
" . c #4E3D69",
".. c #4A1841",
"X. c #3F4853",
"o. c #3C4469",
"O. c #39476C",
"+. c #294575",
"@. c #29457E",
"#. c #294578",
"$. c #334B7D",
"%. c #365079",
"&. c #41405F",
"*. c #414B55",
"=. c #46535C",
"-. c #715154",
";. c #7B605B",
":. c #464C6D",
">. c #504572",
",. c #6B5B66",
"<. c #586C74",
"1. c #726470",
"2. c #85020D",
"3. c #8D030C",
"4. c #9D030F",
"5. c #97030B",
"6. c #8E0212",
"7. c #850716",
"8. c #920211",
"9. c #990310",
"0. c #941B1C",
"q. c #AD0507",
"w. c #A7040D",
"e. c #AC040B",
"r. c #BA0509",
"t. c #B3060A",
"y. c #A8151A",
"u. c #A81118",
"i. c #B9231A",
"p. c #A7231F",
"a. c #900E20",
"s. c #9B1524",
"d. c #831930",
"f. c #A11826",
"g. c #9D2322",
"h. c #932D2A",
"j. c #882A33",
"k. c #A72A28",
"l. c #B23033",
"z. c #C60606",
"x. c #C71617",
"c. c #C72518",
"v. c #C42E24",
"b. c #D03024",
"n. c #D13535",
"m. c #CB3435",
"M. c #844523",
"N. c #854F2C",
"B. c #86552F",
"V. c #95562E",
"C. c #985A36",
"Z. c #9D4D30",
"A. c #A2663A",
"S. c #A7683B",
"D. c #BA633F",
"F. c #A64B2E",
"G. c #C6643C",
"H. c #905548",
"J. c #AB5240",
"K. c #9C6B49",
"L. c #9A6D54",
"P. c #A66F44",
"I. c #A86C49",
"U. c #AD714A",
"Y. c #B6784A",
"T. c #AC7B5B",
"R. c #B47E56",
"E. c #BA664F",
"W. c #D54444",
"Q. c #C26C47",
"!. c #D57C59",
"~. c #DF7373",
"^. c #94852E",
"/. c #998D35",
"(. c #BC855D",
"). c #A39B42",
"_. c #B78C74",
"`. c #C7844E",
"'. c #C4885F",
"]. c #C88856",
"[. c #D08E5A",
"{. c #C98B60",
"}. c #C68A63",
"|. c #D98765",
" X c #CE9267",
".X c #D49465",
"XX c #DB9C6D",
"oX c #D1966A",
"OX c #C29478",
"+X c #D89E73",
"@X c #E38460",
"#X c #DEA67C",
"$X c #E4A474",
"%X c #ECAE7E",
"&X c #2E4F86",
"*X c #30528A",
"=X c #3C5981",
"-X c #375B93",
";X c #43628A",
":X c #CD9194",
">X c #E69292",
",X c #CDBFC0",
"<X c #D4C0C1",
"1X c #F1C1C1",
"2X c #F4D0D0",
"3X c #FBEFEF",
/* pixels */
"                                                        @ @ @ % 7 y y y y y y y                                                 ",
"                                                        5 5 5 9 u p p p i u y y                                                 ",
"                                                @ @ @ 5 y i i 2.4.q.q.w.3.p u y                                                 ",
"                                                5 5 5 8 2.4.4.w.r.z.z.x.l.h.a y                                                 ",
"                                            @ 5 y i i 2.w.r.r.r.z.z.z.m.>X:Xj.y                                                 ",
"                                            5 7 p 8.9.w.r.z.z.z.z.x.n.~.2X<X-.7                                                 ",
"                                        @ 5 y p 6.9.e.r.z.z.z.z.z.n.>X2X3X,X-.% 7 y y y                                         ",
"                                        @ 5 i 6.6.9.e.r.r.r.z.z.z.n.>X1X1X:XJ 9 y u u u                                         ",
"                                        @ 5 i 6.6.8.9.4.4.w.r.z.z.x.n.W.W.m.u.5.3.2.2.p u y                                     ",
"                                        @ % y p p p p 7.0.p.i.i.y.y.i.c.c.c.c.i.7.i i i y y                                     ",
"                                        . # % 6 6 6 6 v Z.D.G.J.| | J.G.G.G.G.F.a 5 6 6                                         ",
"                                        + & s j j s = j A.`.`.L.&.[ ;.T.].[.[.Y.K k j g                                         ",
"                                    . + $ s N.A.A.N.s j A.`.`.L.&.` [ ,._.$X$XXX}.R.P.B.g &                                     ",
"                                    . + $ j A.`.`.A.j f V.Y.`.T.,.:.:.1.OX%X%X%X%X$X.XY.K z                                     ",
"                                    . + $ j A.`.`.S.n e n V.].+XOX_._.OX#X%X%X%X%X%X$XXX}.K.z &                                 ",
"                                    # $ * j A.].[.U.m e d M.{.%X%X%X%X$X X X$X%X%X%X%X%X%X(.D &                                 ",
"                                . # * 0 0 n S.[.XX].K d c M.{.%X%X%X%X XC.C. X%X%X%X%X%X%X(.D &                                 ",
"                                . # = w w b U..X$X.XC.M.M.C..X$X X'.'.I.b b I.'.'.'.'.'.(.K.z &                                 ",
"                                . # = w w m (.$X%X$X.X{.'..X$X XC.H H b f f b H H H H G G z                                     ",
"                                . # = w e b U..XXX$X%X%X%X%X%X XC.b f e e e e e e e e 0 * &                                     ",
"                                . # = e r v m V.Y..X$X%X%X%X%X$X XI.m r r r r r r r r w * &                                     ",
"                                . # * 0 q e d m V.Y.XX%X%X%X%X%X%X.XC.M.M.M.M.M.M.m f q * &                                     ",
"                                    # $ $ * e v m V..X%X%X%X%X%X%X$X.X{.{.{.{.{.{.I.x *                                         ",
"                                    . . . $ 0 e h G U..XXX$X$X$X$X$X%X$X|.|.|.{.}.K.z &                                         ",
"                                            $ ; 4 E G V.Y.[.[.[.[..X$X|.J.k.k.h.b k                                             ",
"                                            % ; 3 E S G C.D.D.D.D.Q.!.E.j.V 7.p 7 5                                             ",
"                                        @ % y i B N E } j.g.g.g.g.g.k.j.....V 6.p i y y                                         ",
"                                        5 8 2.9.8.B Q Q B 8.8.8.9.9.8.B Q T V 9.4.8.p u                                         ",
"                                    @ 5 y 2.w.e.9.B Q Q B 6.6.9.e.e.9.B Q R a.r.r.e.8.p u y                                     ",
"                                    5 8 2.w.r.r.4.B Q T V 4.4.w.r.r.4.B Q R a.r.z.r.w.8.2.p                                     ",
"                                @ 5 y 2.w.r.z.r.4.B Q R a.r.r.r.z.r.4.B Q Q V w.r.z.r.t.q.4.p y                                 ",
"                                @ 5 i 4.r.z.z.t.7.N ! } s.z.z.z.z.r.4.C Q W N 7.t.z.z.z.z.q.p y                                 ",
"                                @ 5 i 4.r.z.z.u.N ! #. .f.z.z.z.z.r.9.B Q ) W N u.z.z.z.z.q.p y                                 ",
"                                5 8 2.w.r.z.r.a.R _ @. .f.z.r.r.r.e.9.B Q ( ( R a.r.z.z.z.t.3.p                                 ",
"                            @ 5 y 2.w.r.z.r.w.V Q ) _ } s.r.w.4.4.9.8.B Q ( ( T V w.r.z.z.z.t.4.p y                             ",
"                            @ 5 i 4.r.z.z.r.4.B Q ( ( ! Z s.d.Z Z A C N W ( ( Q B 4.r.z.z.z.z.q.p y                             ",
"                            @ 5 i 4.r.z.z.r.4.B Q ( ( ]  .>.>.>.>. .! W ) ( ( Q B 4.r.z.z.z.z.q.p y                             ",
"                            @ 5 i 4.r.z.z.r.4.B Q ~ X.=.=X-X-X-X-X&X' ~ X.X.~ Q B 4.r.z.z.z.z.q.p y                             ",
"                            @ 5 i 4.r.z.z.r.4.B Q X.^./.<.-X-X-X-X&X' X.^.^.X.Q B 4.r.z.z.z.z.q.p y                             ",
"                            # 6 0.l.v.b.b.v.k.J ! *./.).<.-X-X-X-X*X{ =.^.^.X.! J k.v.b.b.b.b.i.a 7                             ",
"                            $ k I.|.|.@X@X!.Q.H./ ] <.<.;X-X-X-X-X-X*X%.=.X.~ / H.Q.!.@X@X@X@XE.M %                             ",
"                            & z R.$X%X%X%X$X[.L.&.' &X-X-X-X-X-X-X-X-X&X' ( ( &.L.[.$X%X%X%X$XR.z &                             ",
"                            & l P..X$X%X%X$X[.L.&.' &X-X-X-X-X-X-X-X-X&X' ( ( &.L.[.$X%X%X$X.XP.l &                             ",
"                            & g B.Y.XX%X%X$X[.L.&.' &X-X-X-X-X-X-X-X-X&X' ( ( &.L.[.$X%X%XXXY.B.g &                             ",
"                                g K }.%X%X$X[.L.&.' &X-X-X-X-X-X-X-X-X&X' ( ( &.L.[.$X%X%X}.K g                                 ",
"                                & z R.$X$XoXT.;.o.{ *X-X-X-X-X-X-X-X-X*X{ _ ) [ ;.T.oX$X$XR.z &                                 ",
"                                & l P.[.[.T.,.o.$.*X-X-X-X-X-X-X-X-X-X-X*X@._ ` [ ,.T.[.[.P.l &                                 ",
"                                & g B.K.K.;.o.{ *X-X-X-X-X-X*X&X&X*X-X-X-X*X{ ' ' o.;.K.K.B.g &                                 ",
"                                    s S } o.$.*X-X-X-X-X-X*X{ ' ' { *X-X-X-X*X&X&X$.o.} S s                                     ",
"                                    , 4 I { *X-X-X-X-X-X*X#.( P P ( #.*X-X-X-X-X-X*X{ I 4 ,                                     ",
"                                o < ^ +.&X*X-X-X-X-X-X*X{ ( 1 : : 1 ( { *X-X-X-X-X-X*X&X+.^ < o                                 ",
"                                o < +.-X-X-X-X-X-X-X*X#.( L : o o : L ( #.*X-X-X-X-X-X-X-X+.< o                                 ",
"                                o < +.-X-X-X-X-X-X*X{ ( 1 :         : 1 ( { *X-X-X-X-X-X-X+.< o                                 ",
"                                o < +.-X*X&X&X&X&X@._ P : o         o : P _ @.*X-X-X-X-X-X+.< o                                 ",
"                                o < +.*X{ ' ' ' ' _ ) P : o         o : P ) _ { *X-X-X-X-X+.< o                                 ",
"                                o < ~ ] Y U Y Y Y Y U 2 > O         O > 2 U Y ^ o.:.:.O.O.~ < o                                 ",
"                                    , , - t h h h h t - X X         X X - t h F F D D S 3 ,                                     ",
"                                    . # = e d c c d e = # .         . # = e d c c c c q $ .                                     ",
"                                . . . # = e d c c d e = # .         . # = e d c c c c q $ . . .                                 ",
"                                # # # $ 0 e d c c d e = # .         . # = e r d c c c e * $ $ $                                 ",
"                            . # * = = 0 e d c c c d e = # .         . # = w e e d c c d e q q 0 $ .                             ",
"                            . # 0 w e e d c c c c d e = # .         . # = w w e r d d d c c c q $ .                             ",
"                            . # 0 e r d d c c c c d e = # .         . # = w w w e e e e d c c q $ .                             ",
"                            . # 0 e d c c c c c c d e = # .         . # = w w w w w w e d c c q $ .                             "
};
