/* XPM */
static char *_658ccf4034b4c248f2f02fa70a4be6fLXvyuYpDsYJ7q2rD[] = {
/* columns rows colors chars-per-pixel */
"64 64 126 2 ",
"   c #641804",
".  c #671C06",
"X  c #681A05",
"o  c #691C07",
"O  c #6A1F09",
"+  c #6C1F08",
"@  c #701E08",
"#  c #6B2008",
"$  c #6C210B",
"%  c #6F240A",
"&  c #6D240D",
"*  c #712009",
"=  c #77220A",
"-  c #70250A",
";  c #75240B",
":  c #74250E",
">  c #7A260C",
",  c #7F260D",
"<  c #73280C",
"1  c #752A0D",
"2  c #78290D",
"3  c #7B2D0F",
"4  c #7C2F0F",
"5  c #732B12",
"6  c #752D13",
"7  c #7F2E14",
"8  c #7D3211",
"9  c #7D3419",
"0  c #832B0F",
"q  c #802D0F",
"w  c #823412",
"e  c #853412",
"r  c #8B3213",
"t  c #8B3314",
"y  c #8B3514",
"u  c #8C3617",
"i  c #8A3B16",
"p  c #8A371A",
"a  c #803B1E",
"s  c #8D3819",
"d  c #8F3A1C",
"f  c #933D18",
"g  c #813D20",
"h  c #97471C",
"j  c #99441B",
"k  c #9B471C",
"l  c #9A481D",
"z  c #9F4C1F",
"x  c #864225",
"c  c #8E4627",
"v  c #8B4928",
"b  c #9C4A20",
"n  c #9A4C2B",
"m  c #92522F",
"M  c #9F5128",
"N  c #8F5030",
"B  c #9F5835",
"V  c #9A5D38",
"C  c #9D5E3A",
"Z  c #A04E20",
"A  c #A75724",
"S  c #AA5B26",
"D  c #A25730",
"F  c #A65E38",
"G  c #9D623D",
"H  c #AD612C",
"J  c #B4672B",
"K  c #BA702F",
"L  c #B26C3A",
"P  c #BE7839",
"I  c #C27A34",
"U  c #A46940",
"Y  c #AF6D46",
"T  c #AE7549",
"R  c #AC764E",
"E  c #B87747",
"W  c #B47D4F",
"Q  c #B47A50",
"!  c #C6833F",
"~  c #BD8254",
"^  c #B9875A",
"/  c #BE8559",
"(  c #BE8A58",
")  c #C5874B",
"_  c #CA8A48",
"`  c #C08D5B",
"'  c #CF9554",
"]  c #CD975E",
"[  c #D19A5A",
"{  c #D29B5D",
"}  c #C48F61",
"|  c #C29261",
" . c #CB9A64",
".. c #CD9D66",
"X. c #C99B6B",
"o. c #CC9D68",
"O. c #CD9D6C",
"+. c #D39D60",
"@. c #D49F62",
"#. c #D5A265",
"$. c #D6A466",
"%. c #D1A26A",
"&. c #D7A66A",
"*. c #D5A86F",
"=. c #D9AB6F",
"-. c #D4A670",
";. c #D6AC76",
":. c #D9AB70",
">. c #DAAD72",
",. c #DBAE74",
"<. c #D6AB78",
"1. c #D5AC78",
"2. c #DBB075",
"3. c #DCB277",
"4. c #DDB378",
"5. c #DDB47A",
"6. c #D9B07C",
"7. c #DEB67C",
"8. c #DFB87E",
"9. c #E0B87E",
"0. c #DFB980",
"q. c #E0B980",
"w. c #E1BC83",
"e. c #E3BE86",
"r. c #E3C088",
"t. c #E4C189",
/* pixels */
"{ { +.#.&.=.>.>.>.>.>.>.>.>.>.>.>.>.>.>.>.>.>.>.>.>.>.>.>.>.>.>.>.>.>.>.>.>.>.>.>.>.>.>.>.>.>.>.>.>.>.>.>.>.>.>.>.>. .T m 5     ",
"{ { +.#.&.=.>.>.>.>.>.>.>.>.>.>.>.>.>.>.>.>.>.>.>.>.>.>.>.>.>.>.>.>.>.>.>.>.>.>.>.>.>.>.>.>.>.>.>.>.>.>.>.>.>.>.>.>. .T m 5     ",
"+.+.@.#.&.:.>.>.,.,.,.,.,.,.,.,.,.,.,.,.,.,.,.,.,.,.,.,.,.,.,.,.,.,.,.,.,.,.,.,.,.,.,.,.,.,.,.,.,.,.,.,.,.,.>.*.%...( U v 5     ",
"#.#.#.&.=.>.>.2.3.5.5.5.5.5.5.5.5.5.5.5.5.5.5.5.5.5.5.5.5.5.5.5.5.5.5.5.5.5.5.5.5.5.5.5.5.5.5.5.5.5.5.5.5.5.,.o.` W U m a &     ",
"&.&.&.=.=.>.,.3.5.8.q.q.q.q.q.q.q.q.q.q.q.q.q.q.q.q.q.q.q.q.q.q.q.q.q.q.q.q.q.q.q.q.q.q.q.q.q.q.q.q.q.q.q.q.;.| R V v a 6 O     ",
"=.=.:.>.>.>.,.5.8.e.e.e.e.e.e.e.e.e.e.e.e.e.e.e.e.e.e.e.e.e.e.e.e.e.e.e.e.e.e.e.e.e.e.e.e.e.e.e.e.e.e.e.e.e.1.^ G g 5 & O       ",
">.>.>.>.,.,.3.7.q.e.r.r.t.t.t.t.t.t.t.t.t.t.t.t.t.t.t.t.t.t.t.t.t.t.t.t.t.t.t.t.t.t.t.t.t.t.t.t.t.t.e.0.7.6.X.R N 5             ",
">.>.>.2.3.5.7.8.q.w.e.e.e.t.t.t.t.t.t.t.t.t.t.t.t.t.t.t.t.t.t.t.t.t.t.t.t.t.t.t.t.t.t.t.t.t.t.t.t.t.0.<.O.} Q C x &             ",
">.>.,.3.5.8.q.q.q.q.q.e.e.r.t.t.t.t.t.t.t.t.t.t.t.t.t.t.t.t.t.t.t.t.t.t.t.t.t.t.t.t.t.t.t.t.t.t.t.t.7.O./ Y B c 9 $             ",
">.>.,.5.8.e.e.w.q.8.0.q.e.r.t.t.t.t.t.t.t.t.t.t.t.t.t.t.t.t.t.t.t.t.t.t.t.t.t.t.t.t.t.t.t.t.t.t.t.t.6.} Y n p 7 : o             ",
">.>.,.5.q.e.r.e.q.0.7.8.8.9.9.9.9.9.9.9.9.9.9.9.9.9.9.9.9.9.9.9.9.9.9.9.9.9.9.9.9.9.9.9.9.9.9.9.9.9.-.~ F d , = @ X             ",
">.>.,.5.q.e.r.e.e.q.8.4.>.=.&.&.&.&.&.&.&.&.&.&.&.&.&.&.&.&.&.&.&.&.&.&.&.&.&.&.&.&.&.&.&.&.&.&.&.&.] E D s , = @ X             ",
">.>.,.5.q.e.t.e.e.e.8.>.$.[ ' ' ' ' ' ' ' ' ' ' ' ' ' ' ' ' ' ' ' ' ' ' ' ' ' ' ' ' ' ' ' ' ' ' ' ' ) L M u , = @ X             ",
">.>.,.5.q.e.t.t.r.r.9.=.[ _ ! ! ! ! ! ! ! ! ! ! ! ! ! ! ! ! ! ! ! ! ! ! ! ! ! ! ! ! ! ! ! ! ! ! ! ! P H b t , = @ X             ",
">.>.,.5.q.e.t.t.t.t.9.&.' ! I I I I I I I I I I I I I I I I I I I I I I I I I I I I I I I I I I I I K S k r , = @ X             ",
">.>.,.5.q.e.t.t.t.t.9.&.' ! I I I I I I I I I I I I I I I I I I I I I I I I I I I I I I I I I I I I K S k r , = @ X             ",
">.>.,.5.q.e.t.t.t.t.9.&.' ! I I I I I I I I I I I I I I I I I I I I I I I I I I I I I I I I I I I I K S k r , = @ X             ",
">.>.,.5.q.e.t.t.t.t.9.&.' ! I I I I I I I I I I I I I I I I I I I I I I I I I I I I I I I I I I I I K S k r , = @ X             ",
">.>.,.5.q.e.t.t.t.t.9.&.' ! I I I I I I I I I I I I I I I I I I I I I I I I I I I I I I I I I I I I K S k r , = @ X             ",
">.>.,.5.q.e.t.t.t.t.9.&.' ! I I I I I I I I I I I I I I I I I I I I I I I I I I I I I I I I I I I I K S k r , = @ X             ",
">.>.,.5.q.e.t.t.t.t.9.&.' ! I I I I I I I I I I I I I I I I I I I I I I I I I I I I I I I I I I I I K S k r , = @ X             ",
">.>.,.5.q.e.t.t.t.t.9.&.' ! I I I I I I I I I I I I I I I I I I I I I I I I I I I I I I I I I I I I K S k r , = @ X             ",
">.>.,.5.q.e.t.t.t.t.9.&.' ! I I I I I I I I I I I I I I I I I I I I I I I I I I I I I I I I I I I I K S k r , = @ X             ",
">.>.,.5.q.e.t.t.t.t.9.&.' ! I I I I I I I I I I I I I I I I I I I I I I I I I I I I I I I I I I I I K S k r , = @ X             ",
">.>.,.5.q.e.t.t.t.t.9.&.' ! I I I I I I I I I I I I I I I I I I I I I I I I I I I I I I I I I I I I K S k r , = @ X             ",
">.>.,.5.q.e.t.t.t.t.9.&.' ! I I I I I I I I I I I I I I I I I I I I I I I I I I I I I I I I I I I I K S k r , = @ X             ",
">.>.,.5.q.e.t.t.t.t.9.&.' ! I I I I I I I I I I I I I I I I I I I I I I I I I I I I I I I I I I I I K S k r , = @ X             ",
">.>.,.5.q.e.t.t.t.t.9.&.' ! I I I I I I I I I I I I I I I I I I I I I I I I I I I I I I I I I I I I K S k r , = @ X             ",
">.>.,.5.q.e.t.t.t.t.9.&.' ! I I I I I I I I I I I I I I I I I I I I I I I I I I I I I I I I I I I I K S k r , = @ X             ",
">.>.,.5.q.e.t.t.t.t.9.&.' ! I I I I I I I I I I I I I I I I I I I I I I I I I I I I I I I I I I I I K S k r , = @ X             ",
">.>.,.5.q.e.t.t.t.t.9.&.' ! I I I I I I I I I I I I I I I I I I I I I I I I I I I I I I I I I I I I K S k r , = @ X             ",
">.>.,.5.q.e.t.t.t.t.9.&.' ! I I I I I I I I I I I I I I I I I I I I I I I I I I I I I I I I I I I I K S k r , = @ X             ",
">.>.,.5.q.e.t.t.t.t.9.&.' ! I I I I I I I I I I I I I I I I I I I I I I I I I I I I I I I I I I I I K S k r , = @ X             ",
">.>.,.5.q.e.t.t.t.t.9.&.' ! I I I I I I I I I I I I I I I I I I I I I I I I I I I I I I I I I I I I K S k r , = @ X             ",
">.>.,.5.q.e.t.t.t.t.9.&.' ! I I I I I I I I I I I I I I I I I I I I I I I I I I I I I I I I I I I I K S k r , = @ X             ",
">.>.,.5.q.e.t.t.t.t.9.&.' ! I I I I I I I I I I I I I I I I I I I I I I I I I I I I I I I I I I I I K S k r , = @ X             ",
">.>.,.5.q.e.t.t.t.t.9.&.' ! I I I I I I I I I I I I I I I I I I I I I I I I I I I I I I I I I I I I K S k r , = @ X             ",
">.>.,.5.q.e.t.t.t.t.9.&.' ! I I I I I I I I I I I I I I I I I I I I I I I I I I I I I I I I I I I I K S k r , = @ X             ",
">.>.,.5.q.e.t.t.t.t.9.&.' ! I I I I I I I I I I I I I I I I I I I I I I I I I I I I I I I I I I I I K S k r , = @ X             ",
">.>.,.5.q.e.t.t.t.t.9.&.' ! I I I I I I I I I I I I I I I I I I I I I I I I I I I I I I I I I I I I K S k r , = @ X             ",
">.>.,.5.q.e.t.t.t.t.9.&.' ! I I I I I I I I I I I I I I I I I I I I I I I I I I I I I I I I I I I I K S k r , = @ X             ",
">.>.,.5.q.e.t.t.t.t.9.&.' ! I I I I I I I I I I I I I I I I I I I I I I I I I I I I I I I I I I I I K S k r , = @ X             ",
">.>.,.5.q.e.t.t.t.t.9.&.' ! I I I I I I I I I I I I I I I I I I I I I I I I I I I I I I I I I I I I K S k r , = @ X             ",
">.>.,.5.q.e.t.t.t.t.9.&.' ! I I I I I I I I I I I I I I I I I I I I I I I I I I I I I I I I I I I I K S k r , = @ X             ",
">.>.,.5.q.e.t.t.t.t.9.&.' ! I I I I I I I I I I I I I I I I I I I I I I I I I I I I I I I I I I I I K S k r , = @ X             ",
">.>.,.5.q.e.t.t.t.t.9.&.' ! I I I I I I I I I I I I I I I I I I I I I I I I I I I I I I I I I I I I K S k r , = @ X             ",
">.>.,.5.q.e.t.t.t.t.9.&.' ! I I I I I I I I I I I I I I I I I I I I I I I I I I I I I I I I I I I I K S k r , = @ X             ",
">.>.,.5.q.e.t.t.t.t.9.&.' ! I I I I I I I I I I I I I I I I I I I I I I I I I I I I I I I I I I I I K S k r , = @ X             ",
">.>.,.5.q.e.t.t.t.t.9.&.' ! I I I I I I I I I I I I I I I I I I I I I I I I I I I I I I I I I I I I K S k r , = @ X             ",
">.>.,.5.q.e.t.t.t.t.9.&.' ! I I I I I I I I I I I I I I I I I I I I I I I I I I I I I I I I I I I I K S k r , = @ X             ",
">.>.,.5.q.e.e.0.7.6.-.] ) P K K K K K K K K K K K K K K K K K K K K K K K K K K K K K K K K K K K K J A k u 0 > * X             ",
">.>.,.5.q.e.0.<.O.} ~ E L H S S S S S S S S S S S S S S S S S S S S S S S S S S S S S S S S S S S S A Z k f y q ; o             ",
">.>.,.5.q.e.7.O./ Y F D M b k k k k k k k k k k k k k k k k k k k k k k k k k k k k k k k k k k k k k k k j f e 2 o             ",
">.>.,.5.q.e.6.} Y n d s u t r r r r r r r r r r r r r r r r r r r r r r r r r r r r r r r r r r r r u f j z l i 3 +             ",
">.>.>.,.;.1.X.Q B p , , , , , , , , , , , , , , , , , , , , , , , , , , , , , , , , , , , , , , , , 0 y f l h i 4 $ .           ",
">.>.*.o.| ^ R C c 7 = = = = = = = = = = = = = = = = = = = = = = = = = = = = = = = = = = = = = = = = > q e i i w 3 < $ # o       ",
">.>.%.` R G N x 9 : @ @ @ @ @ @ @ @ @ @ @ @ @ @ @ @ @ @ @ @ @ @ @ @ @ @ @ @ @ @ @ @ @ @ @ @ @ @ @ @ * ; 2 3 4 3 3 3 1 - #       ",
">.>...W V g 5 & $ o X X X X X X X X X X X X X X X X X X X X X X X X X X X X X X X X X X X X X X X X X o o + $ < 3 8 8 1 % o     ",
" . .( U v 5                                                                                                 . $ 1 8 8 1 % o     ",
"T T U m a &                                                                                                   # - 1 1 - $ o o o ",
"m m v a 6 O                                                                                                   o # $ % $ $ # O o ",
"5 5 5 & O                                                                                                         . o o # $ $ $ ",
"                                                                                                                      o O $ $ $ ",
"                                                                                                                      o O $ $ $ "
};
